<?xml version="1.0" encoding="UTF-8" standalone="no"?>
<!-- Created with Inkscape (http://www.inkscape.org/) -->

<svg
   width="291.04193mm"
   height="202.5343mm"
   viewBox="0 0 291.04193 202.5343"
   version="1.1"
   id="svg1"
   xml:space="preserve"
   xmlns="http://www.w3.org/2000/svg"
   xmlns:svg="http://www.w3.org/2000/svg"><defs
   id="defs1" />
<g
   id="g6"
   transform="matrix(-0.26458333,0,0,0.26458334,304.2711,-57.483109)">
	<path
   fill="#08175b"
   d="m 1133.594,406.51 c -15.897,-21.494 -40.347,-33.825 -67.08,-33.825 H 334.035 c -0.447,0 -0.866,0.108 -1.306,0.132 L 302.858,276.071 C 292.002,240.896 259.976,217.259 223.161,217.259 H 74.769 C 61.088,217.258 50,228.346 50,242.027 c 0,13.681 11.088,24.769 24.769,24.769 h 148.393 c 14.949,0 27.952,9.598 32.364,23.884 l 147.348,477.257 c 6.26,20.285 19.692,36.528 36.893,46.818 17.609,-17.079 41.58,-27.637 68.05,-27.637 32.195,0 60.67,15.625 78.495,39.631 h 283.571 c 17.827,-24.005 46.299,-39.631 78.495,-39.631 27.418,0 52.165,11.312 69.925,29.485 18.71,-10.145 33.291,-27.279 39.892,-48.816 l 88.066,-287.231 c 7.845,-25.558 3.22,-52.548 -12.667,-74.046 z m -34.697,59.523 -88.076,287.235 c -4.383,14.32 -17.396,23.942 -32.384,23.942 H 482.57 c -14.949,0 -27.952,-9.598 -32.364,-23.884 L 351.94,422.222 h 714.574 c 10.856,0 20.783,5.007 27.246,13.739 6.453,8.728 8.33,19.69 5.137,30.072 z"
   id="path1" />
	<path
   fill="#ff7f29"
   d="M 1066.514,422.222 H 351.94 l 98.266,331.104 c 4.412,14.286 17.416,23.884 32.364,23.884 h 495.867 c 14.987,0 28.001,-9.622 32.384,-23.942 l 88.076,-287.235 c 3.193,-10.382 1.316,-21.344 -5.138,-30.071 -6.462,-8.732 -16.389,-13.74 -27.245,-13.74 z M 905.717,682.908 H 578.89 c -8.205,0 -14.862,-6.652 -14.862,-14.862 0,-8.21 6.657,-14.862 14.862,-14.862 h 326.827 c 8.205,0 14.862,6.652 14.862,14.862 0,8.211 -6.657,14.862 -14.862,14.862 z M 933.515,581.021 H 557.71 c -8.205,0 -14.862,-6.652 -14.862,-14.862 0,-8.21 6.657,-14.862 14.862,-14.862 h 375.805 c 8.205,0 14.862,6.652 14.862,14.862 -10e-4,8.21 -6.658,14.862 -14.862,14.862 z"
   id="path2" />
	<path
   fill="#ed2f2f"
   d="M 933.515,551.298 H 557.71 c -8.205,0 -14.862,6.652 -14.862,14.862 0,8.21 6.657,14.862 14.862,14.862 h 375.805 c 8.205,0 14.862,-6.652 14.862,-14.862 -10e-4,-8.21 -6.658,-14.862 -14.862,-14.862 z"
   id="path3" />
	<path
   fill="#ed2f2f"
   d="M 905.717,653.185 H 578.89 c -8.205,0 -14.862,6.652 -14.862,14.862 0,8.21 6.657,14.862 14.862,14.862 h 326.827 c 8.205,0 14.862,-6.652 14.862,-14.862 0,-8.21 -6.657,-14.862 -14.862,-14.862 z"
   id="path4" />
	<path
   fill="#08175b"
   d="m 948.376,787.118 c -32.195,0 -60.668,15.625 -78.495,39.631 -12.08,16.272 -19.317,36.358 -19.317,58.182 0,54.02 43.794,97.812 97.812,97.812 54.023,0 97.812,-43.792 97.812,-97.812 0,-26.604 -10.655,-50.695 -27.887,-68.328 -17.76,-18.173 -42.507,-29.485 -69.925,-29.485 z m -1.949,145.388 c -26.276,0 -47.577,-21.301 -47.577,-47.576 0,-26.275 21.301,-47.577 47.577,-47.577 26.276,0 47.577,21.301 47.577,47.577 0,26.276 -21.301,47.576 -47.577,47.576 z"
   id="path5" />
	<circle
   fill="#ed2f2f"
   cx="946.427"
   cy="884.92999"
   r="47.576"
   id="circle5" />
	<path
   fill="#08175b"
   d="m 507.816,787.118 c -26.47,0 -50.441,10.558 -68.05,27.637 -18.33,17.777 -29.764,42.625 -29.764,70.176 0,54.02 43.796,97.812 97.814,97.812 54.021,0 97.812,-43.792 97.812,-97.812 0,-21.824 -7.235,-41.91 -19.317,-58.182 -17.825,-24.006 -46.3,-39.631 -78.495,-39.631 z m -1.952,145.388 c -26.274,0 -47.577,-21.301 -47.577,-47.576 0,-26.275 21.303,-47.577 47.577,-47.577 26.276,0 47.577,21.301 47.577,47.577 0,26.276 -21.301,47.576 -47.577,47.576 z"
   id="path6" />
	<circle
   fill="#ed2f2f"
   cx="505.86401"
   cy="884.92999"
   r="47.576"
   id="circle6" />
</g>
</svg>
